<mxfile host="app.diagrams.net" modified="2023-10-17T03:47:44.294Z" agent="Mozilla/5.0 (Windows NT 10.0; Win64; x64) AppleWebKit/537.36 (KHTML, like Gecko) Chrome/118.0.0.0 Safari/537.36 Edg/118.0.2088.46" etag="37W_vjqaeqPsqIenvFsa" version="21.6.8" type="device">
  <diagram id="C5RBs43oDa-KdzZeNtuy" name="Page-1">
    <mxGraphModel dx="1043" dy="582" grid="1" gridSize="10" guides="1" tooltips="1" connect="1" arrows="1" fold="1" page="1" pageScale="1" pageWidth="827" pageHeight="1169" math="0" shadow="0">
      <root>
        <mxCell id="WIyWlLk6GJQsqaUBKTNV-0" />
        <mxCell id="WIyWlLk6GJQsqaUBKTNV-1" parent="WIyWlLk6GJQsqaUBKTNV-0" />
        <mxCell id="EHEU47J59nYUUZfkPBZu-8" style="edgeStyle=orthogonalEdgeStyle;rounded=0;orthogonalLoop=1;jettySize=auto;html=1;entryX=0;entryY=0.5;entryDx=0;entryDy=0;endArrow=none;endFill=0;" edge="1" parent="WIyWlLk6GJQsqaUBKTNV-1" source="EHEU47J59nYUUZfkPBZu-0" target="EHEU47J59nYUUZfkPBZu-5">
          <mxGeometry relative="1" as="geometry" />
        </mxCell>
        <mxCell id="EHEU47J59nYUUZfkPBZu-37" value="Ingresar&amp;nbsp; a instagram" style="edgeLabel;html=1;align=center;verticalAlign=middle;resizable=0;points=[];" vertex="1" connectable="0" parent="EHEU47J59nYUUZfkPBZu-8">
          <mxGeometry x="-0.2445" y="1" relative="1" as="geometry">
            <mxPoint x="11" y="-14" as="offset" />
          </mxGeometry>
        </mxCell>
        <mxCell id="EHEU47J59nYUUZfkPBZu-0" value="Usuario 1" style="shape=umlActor;verticalLabelPosition=bottom;verticalAlign=top;html=1;outlineConnect=0;" vertex="1" parent="WIyWlLk6GJQsqaUBKTNV-1">
          <mxGeometry x="70" y="170" width="20" height="50" as="geometry" />
        </mxCell>
        <mxCell id="EHEU47J59nYUUZfkPBZu-5" value=": Registro" style="rounded=0;whiteSpace=wrap;html=1;" vertex="1" parent="WIyWlLk6GJQsqaUBKTNV-1">
          <mxGeometry x="220" y="165" width="120" height="60" as="geometry" />
        </mxCell>
        <mxCell id="EHEU47J59nYUUZfkPBZu-10" style="edgeStyle=orthogonalEdgeStyle;rounded=0;orthogonalLoop=1;jettySize=auto;html=1;entryX=1;entryY=0.5;entryDx=0;entryDy=0;endArrow=none;endFill=0;" edge="1" parent="WIyWlLk6GJQsqaUBKTNV-1" source="EHEU47J59nYUUZfkPBZu-6" target="EHEU47J59nYUUZfkPBZu-5">
          <mxGeometry relative="1" as="geometry">
            <Array as="points">
              <mxPoint x="515" y="195" />
            </Array>
          </mxGeometry>
        </mxCell>
        <mxCell id="EHEU47J59nYUUZfkPBZu-16" value="Ingresar usuario y contraseÃ±a" style="edgeLabel;html=1;align=center;verticalAlign=middle;resizable=0;points=[];" vertex="1" connectable="0" parent="EHEU47J59nYUUZfkPBZu-10">
          <mxGeometry x="0.2011" y="-3" relative="1" as="geometry">
            <mxPoint y="-12" as="offset" />
          </mxGeometry>
        </mxCell>
        <mxCell id="EHEU47J59nYUUZfkPBZu-12" style="edgeStyle=orthogonalEdgeStyle;rounded=0;orthogonalLoop=1;jettySize=auto;html=1;entryX=0.5;entryY=0;entryDx=0;entryDy=0;endArrow=none;endFill=0;" edge="1" parent="WIyWlLk6GJQsqaUBKTNV-1" source="EHEU47J59nYUUZfkPBZu-6" target="EHEU47J59nYUUZfkPBZu-11">
          <mxGeometry relative="1" as="geometry">
            <Array as="points">
              <mxPoint x="414" y="265" />
            </Array>
          </mxGeometry>
        </mxCell>
        <mxCell id="EHEU47J59nYUUZfkPBZu-15" value="Son correctos" style="edgeLabel;html=1;align=center;verticalAlign=middle;resizable=0;points=[];" vertex="1" connectable="0" parent="EHEU47J59nYUUZfkPBZu-12">
          <mxGeometry x="0.4598" y="2" relative="1" as="geometry">
            <mxPoint x="44" y="-83" as="offset" />
          </mxGeometry>
        </mxCell>
        <mxCell id="EHEU47J59nYUUZfkPBZu-17" value="Empezar Live" style="edgeLabel;html=1;align=center;verticalAlign=middle;resizable=0;points=[];rotation=-90;" vertex="1" connectable="0" parent="EHEU47J59nYUUZfkPBZu-12">
          <mxGeometry x="0.5912" y="-2" relative="1" as="geometry">
            <mxPoint x="-12" y="-25" as="offset" />
          </mxGeometry>
        </mxCell>
        <mxCell id="EHEU47J59nYUUZfkPBZu-13" style="edgeStyle=orthogonalEdgeStyle;rounded=0;orthogonalLoop=1;jettySize=auto;html=1;entryX=0.5;entryY=0;entryDx=0;entryDy=0;" edge="1" parent="WIyWlLk6GJQsqaUBKTNV-1" source="EHEU47J59nYUUZfkPBZu-6" target="EHEU47J59nYUUZfkPBZu-5">
          <mxGeometry relative="1" as="geometry">
            <Array as="points">
              <mxPoint x="570" y="265" />
              <mxPoint x="570" y="120" />
              <mxPoint x="280" y="120" />
            </Array>
          </mxGeometry>
        </mxCell>
        <mxCell id="EHEU47J59nYUUZfkPBZu-14" value="No son correctos" style="edgeLabel;html=1;align=center;verticalAlign=middle;resizable=0;points=[];" vertex="1" connectable="0" parent="EHEU47J59nYUUZfkPBZu-13">
          <mxGeometry x="0.1399" relative="1" as="geometry">
            <mxPoint x="-32" y="-10" as="offset" />
          </mxGeometry>
        </mxCell>
        <mxCell id="EHEU47J59nYUUZfkPBZu-6" value="" style="rhombus;whiteSpace=wrap;html=1;" vertex="1" parent="WIyWlLk6GJQsqaUBKTNV-1">
          <mxGeometry x="500" y="250" width="30" height="30" as="geometry" />
        </mxCell>
        <mxCell id="EHEU47J59nYUUZfkPBZu-19" style="edgeStyle=orthogonalEdgeStyle;rounded=0;orthogonalLoop=1;jettySize=auto;html=1;entryX=0.5;entryY=0;entryDx=0;entryDy=0;endArrow=none;endFill=0;" edge="1" parent="WIyWlLk6GJQsqaUBKTNV-1" source="EHEU47J59nYUUZfkPBZu-11" target="EHEU47J59nYUUZfkPBZu-18">
          <mxGeometry relative="1" as="geometry" />
        </mxCell>
        <mxCell id="EHEU47J59nYUUZfkPBZu-20" value="Invitar usuarios al live" style="edgeLabel;html=1;align=center;verticalAlign=middle;resizable=0;points=[];rotation=-90;" vertex="1" connectable="0" parent="EHEU47J59nYUUZfkPBZu-19">
          <mxGeometry x="-0.1272" y="2" relative="1" as="geometry">
            <mxPoint x="-17" y="11" as="offset" />
          </mxGeometry>
        </mxCell>
        <mxCell id="EHEU47J59nYUUZfkPBZu-11" value=": Live" style="rounded=0;whiteSpace=wrap;html=1;" vertex="1" parent="WIyWlLk6GJQsqaUBKTNV-1">
          <mxGeometry x="354" y="390" width="120" height="60" as="geometry" />
        </mxCell>
        <mxCell id="EHEU47J59nYUUZfkPBZu-24" style="edgeStyle=orthogonalEdgeStyle;rounded=0;orthogonalLoop=1;jettySize=auto;html=1;entryX=0.5;entryY=0;entryDx=0;entryDy=0;entryPerimeter=0;endArrow=none;endFill=0;" edge="1" parent="WIyWlLk6GJQsqaUBKTNV-1" source="EHEU47J59nYUUZfkPBZu-18" target="EHEU47J59nYUUZfkPBZu-21">
          <mxGeometry relative="1" as="geometry" />
        </mxCell>
        <mxCell id="EHEU47J59nYUUZfkPBZu-18" value=": Invitacion" style="rounded=0;whiteSpace=wrap;html=1;" vertex="1" parent="WIyWlLk6GJQsqaUBKTNV-1">
          <mxGeometry x="354" y="630" width="120" height="60" as="geometry" />
        </mxCell>
        <mxCell id="EHEU47J59nYUUZfkPBZu-25" style="edgeStyle=orthogonalEdgeStyle;rounded=0;orthogonalLoop=1;jettySize=auto;html=1;entryX=0;entryY=0.5;entryDx=0;entryDy=0;endArrow=none;endFill=0;" edge="1" parent="WIyWlLk6GJQsqaUBKTNV-1">
          <mxGeometry relative="1" as="geometry">
            <mxPoint x="399" y="820.0000000000002" as="sourcePoint" />
            <mxPoint x="354" y="430" as="targetPoint" />
            <Array as="points">
              <mxPoint x="270" y="820" />
              <mxPoint x="270" y="420" />
              <mxPoint x="354" y="420" />
            </Array>
          </mxGeometry>
        </mxCell>
        <mxCell id="EHEU47J59nYUUZfkPBZu-26" value="Unirse al live" style="edgeLabel;html=1;align=center;verticalAlign=middle;resizable=0;points=[];rotation=-90;" vertex="1" connectable="0" parent="EHEU47J59nYUUZfkPBZu-25">
          <mxGeometry x="0.0492" y="-2" relative="1" as="geometry">
            <mxPoint x="-12" y="38" as="offset" />
          </mxGeometry>
        </mxCell>
        <mxCell id="EHEU47J59nYUUZfkPBZu-47" style="edgeStyle=orthogonalEdgeStyle;rounded=0;orthogonalLoop=1;jettySize=auto;html=1;endArrow=none;endFill=0;" edge="1" parent="WIyWlLk6GJQsqaUBKTNV-1" source="EHEU47J59nYUUZfkPBZu-21">
          <mxGeometry relative="1" as="geometry">
            <mxPoint x="580" y="680" as="targetPoint" />
            <Array as="points">
              <mxPoint x="580" y="800" />
            </Array>
          </mxGeometry>
        </mxCell>
        <mxCell id="EHEU47J59nYUUZfkPBZu-64" value="Realizar un comentario" style="edgeLabel;html=1;align=center;verticalAlign=middle;resizable=0;points=[];" vertex="1" connectable="0" parent="EHEU47J59nYUUZfkPBZu-47">
          <mxGeometry x="-0.417" y="1" relative="1" as="geometry">
            <mxPoint x="-18" y="-9" as="offset" />
          </mxGeometry>
        </mxCell>
        <mxCell id="EHEU47J59nYUUZfkPBZu-21" value="Usuario 2" style="shape=umlActor;verticalLabelPosition=bottom;verticalAlign=top;html=1;outlineConnect=0;" vertex="1" parent="WIyWlLk6GJQsqaUBKTNV-1">
          <mxGeometry x="399" y="790" width="30" height="60" as="geometry" />
        </mxCell>
        <mxCell id="EHEU47J59nYUUZfkPBZu-66" style="edgeStyle=orthogonalEdgeStyle;rounded=0;orthogonalLoop=1;jettySize=auto;html=1;endArrow=none;endFill=0;" edge="1" parent="WIyWlLk6GJQsqaUBKTNV-1" source="EHEU47J59nYUUZfkPBZu-27" target="EHEU47J59nYUUZfkPBZu-65">
          <mxGeometry relative="1" as="geometry">
            <Array as="points">
              <mxPoint x="580" y="560" />
              <mxPoint x="580" y="560" />
            </Array>
          </mxGeometry>
        </mxCell>
        <mxCell id="EHEU47J59nYUUZfkPBZu-27" value=": Comentario" style="rounded=0;whiteSpace=wrap;html=1;" vertex="1" parent="WIyWlLk6GJQsqaUBKTNV-1">
          <mxGeometry x="520" y="630" width="120" height="60" as="geometry" />
        </mxCell>
        <mxCell id="EHEU47J59nYUUZfkPBZu-67" style="edgeStyle=orthogonalEdgeStyle;rounded=0;orthogonalLoop=1;jettySize=auto;html=1;endArrow=none;endFill=0;" edge="1" parent="WIyWlLk6GJQsqaUBKTNV-1" source="EHEU47J59nYUUZfkPBZu-28" target="EHEU47J59nYUUZfkPBZu-65">
          <mxGeometry relative="1" as="geometry">
            <Array as="points">
              <mxPoint x="750" y="560" />
              <mxPoint x="750" y="560" />
            </Array>
          </mxGeometry>
        </mxCell>
        <mxCell id="EHEU47J59nYUUZfkPBZu-28" value=": Reaccion" style="rounded=0;whiteSpace=wrap;html=1;" vertex="1" parent="WIyWlLk6GJQsqaUBKTNV-1">
          <mxGeometry x="690" y="630" width="120" height="60" as="geometry" />
        </mxCell>
        <mxCell id="EHEU47J59nYUUZfkPBZu-32" value="" style="endArrow=classic;html=1;rounded=0;" edge="1" parent="WIyWlLk6GJQsqaUBKTNV-1">
          <mxGeometry width="50" height="50" relative="1" as="geometry">
            <mxPoint x="280" y="680" as="sourcePoint" />
            <mxPoint x="279.58" y="660" as="targetPoint" />
            <Array as="points">
              <mxPoint x="280" y="670" />
            </Array>
          </mxGeometry>
        </mxCell>
        <mxCell id="EHEU47J59nYUUZfkPBZu-35" value="" style="endArrow=classic;html=1;rounded=0;" edge="1" parent="WIyWlLk6GJQsqaUBKTNV-1">
          <mxGeometry width="50" height="50" relative="1" as="geometry">
            <mxPoint x="421" y="730" as="sourcePoint" />
            <mxPoint x="420" y="750" as="targetPoint" />
            <Array as="points">
              <mxPoint x="420.41999999999996" y="750" />
            </Array>
          </mxGeometry>
        </mxCell>
        <mxCell id="EHEU47J59nYUUZfkPBZu-36" value="" style="endArrow=classic;html=1;rounded=0;" edge="1" parent="WIyWlLk6GJQsqaUBKTNV-1">
          <mxGeometry width="50" height="50" relative="1" as="geometry">
            <mxPoint x="120" y="210" as="sourcePoint" />
            <mxPoint x="140" y="210" as="targetPoint" />
            <Array as="points">
              <mxPoint x="140.42" y="210" />
            </Array>
          </mxGeometry>
        </mxCell>
        <mxCell id="EHEU47J59nYUUZfkPBZu-38" value="" style="endArrow=classic;html=1;rounded=0;" edge="1" parent="WIyWlLk6GJQsqaUBKTNV-1">
          <mxGeometry width="50" height="50" relative="1" as="geometry">
            <mxPoint x="360" y="210" as="sourcePoint" />
            <mxPoint x="380" y="210" as="targetPoint" />
            <Array as="points">
              <mxPoint x="380.41999999999996" y="210" />
            </Array>
          </mxGeometry>
        </mxCell>
        <mxCell id="EHEU47J59nYUUZfkPBZu-39" value="" style="endArrow=classic;html=1;rounded=0;" edge="1" parent="WIyWlLk6GJQsqaUBKTNV-1">
          <mxGeometry width="50" height="50" relative="1" as="geometry">
            <mxPoint x="453.58" y="130" as="sourcePoint" />
            <mxPoint x="450" y="130" as="targetPoint" />
            <Array as="points">
              <mxPoint x="474" y="130" />
            </Array>
          </mxGeometry>
        </mxCell>
        <mxCell id="EHEU47J59nYUUZfkPBZu-40" value="" style="endArrow=classic;html=1;rounded=0;" edge="1" parent="WIyWlLk6GJQsqaUBKTNV-1">
          <mxGeometry width="50" height="50" relative="1" as="geometry">
            <mxPoint x="421" y="490" as="sourcePoint" />
            <mxPoint x="420" y="510" as="targetPoint" />
            <Array as="points">
              <mxPoint x="420.41999999999996" y="510" />
            </Array>
          </mxGeometry>
        </mxCell>
        <mxCell id="EHEU47J59nYUUZfkPBZu-41" value="" style="endArrow=classic;html=1;rounded=0;" edge="1" parent="WIyWlLk6GJQsqaUBKTNV-1">
          <mxGeometry width="50" height="50" relative="1" as="geometry">
            <mxPoint x="421" y="290" as="sourcePoint" />
            <mxPoint x="420" y="310" as="targetPoint" />
            <Array as="points">
              <mxPoint x="420.41999999999996" y="310" />
            </Array>
          </mxGeometry>
        </mxCell>
        <mxCell id="EHEU47J59nYUUZfkPBZu-46" style="edgeStyle=orthogonalEdgeStyle;rounded=0;orthogonalLoop=1;jettySize=auto;html=1;entryX=0.5;entryY=1;entryDx=0;entryDy=0;endArrow=none;endFill=0;" edge="1" parent="WIyWlLk6GJQsqaUBKTNV-1">
          <mxGeometry relative="1" as="geometry">
            <mxPoint x="440" y="840" as="sourcePoint" />
            <mxPoint x="761" y="680" as="targetPoint" />
            <Array as="points">
              <mxPoint x="761" y="840" />
            </Array>
          </mxGeometry>
        </mxCell>
        <mxCell id="EHEU47J59nYUUZfkPBZu-49" value="Realizar una reaccion" style="edgeLabel;html=1;align=center;verticalAlign=middle;resizable=0;points=[];rotation=0;" vertex="1" connectable="0" parent="EHEU47J59nYUUZfkPBZu-46">
          <mxGeometry x="0.388" relative="1" as="geometry">
            <mxPoint x="-270" y="3" as="offset" />
          </mxGeometry>
        </mxCell>
        <mxCell id="EHEU47J59nYUUZfkPBZu-58" value="" style="endArrow=classic;html=1;rounded=0;" edge="1" parent="WIyWlLk6GJQsqaUBKTNV-1">
          <mxGeometry width="50" height="50" relative="1" as="geometry">
            <mxPoint x="440" y="850" as="sourcePoint" />
            <mxPoint x="460" y="850" as="targetPoint" />
            <Array as="points">
              <mxPoint x="440.4200000000001" y="850" />
            </Array>
          </mxGeometry>
        </mxCell>
        <mxCell id="EHEU47J59nYUUZfkPBZu-60" value="" style="endArrow=classic;html=1;rounded=0;" edge="1" parent="WIyWlLk6GJQsqaUBKTNV-1">
          <mxGeometry width="50" height="50" relative="1" as="geometry">
            <mxPoint x="440" y="810" as="sourcePoint" />
            <mxPoint x="460" y="810" as="targetPoint" />
            <Array as="points">
              <mxPoint x="460.41999999999996" y="810" />
            </Array>
          </mxGeometry>
        </mxCell>
        <mxCell id="EHEU47J59nYUUZfkPBZu-68" style="edgeStyle=orthogonalEdgeStyle;rounded=0;orthogonalLoop=1;jettySize=auto;html=1;entryX=1;entryY=0.5;entryDx=0;entryDy=0;endArrow=none;endFill=0;" edge="1" parent="WIyWlLk6GJQsqaUBKTNV-1" source="EHEU47J59nYUUZfkPBZu-65" target="EHEU47J59nYUUZfkPBZu-11">
          <mxGeometry relative="1" as="geometry">
            <Array as="points">
              <mxPoint x="660" y="420" />
            </Array>
          </mxGeometry>
        </mxCell>
        <mxCell id="EHEU47J59nYUUZfkPBZu-70" value="Reflejar en el Live" style="edgeLabel;html=1;align=center;verticalAlign=middle;resizable=0;points=[];" vertex="1" connectable="0" parent="EHEU47J59nYUUZfkPBZu-68">
          <mxGeometry x="-0.4319" y="1" relative="1" as="geometry">
            <mxPoint x="-49" y="-41" as="offset" />
          </mxGeometry>
        </mxCell>
        <mxCell id="EHEU47J59nYUUZfkPBZu-65" value="" style="line;strokeWidth=4;html=1;perimeter=backbonePerimeter;points=[];outlineConnect=0;" vertex="1" parent="WIyWlLk6GJQsqaUBKTNV-1">
          <mxGeometry x="540" y="530" width="240" height="20" as="geometry" />
        </mxCell>
        <mxCell id="EHEU47J59nYUUZfkPBZu-71" value="" style="endArrow=classic;html=1;rounded=0;" edge="1" parent="WIyWlLk6GJQsqaUBKTNV-1">
          <mxGeometry width="50" height="50" relative="1" as="geometry">
            <mxPoint x="633.5799999999999" y="430" as="sourcePoint" />
            <mxPoint x="630" y="430" as="targetPoint" />
            <Array as="points">
              <mxPoint x="654" y="430" />
            </Array>
          </mxGeometry>
        </mxCell>
      </root>
    </mxGraphModel>
  </diagram>
</mxfile>
